<?xml version="1.0" encoding="UTF-8" standalone="no"?>
<!DOCTYPE svg PUBLIC "-//W3C//DTD SVG 1.1//EN"
 "http://www.w3.org/Graphics/SVG/1.1/DTD/svg11.dtd">
<!-- Generated by graphviz version 2.43.0 (0)
 -->
<!-- Title: G Pages: 1 -->
<svg width="1248pt" height="223pt"
 viewBox="0.00 0.00 1248.00 223.00" xmlns="http://www.w3.org/2000/svg" xmlns:xlink="http://www.w3.org/1999/xlink">
<g id="graph0" class="graph" transform="scale(1 1) rotate(0) translate(4 219)">
<title>G</title>
<polygon fill="white" stroke="transparent" points="-4,4 -4,-219 1244,-219 1244,4 -4,4"/>
<g id="clust1" class="cluster">
<title>cluster_5u2rcpKXFNyRvOMhOfHJL</title>
<polygon fill="lightblue" stroke="blue" points="899,-8 899,-174 1091,-174 1091,-8 899,-8"/>
<text text-anchor="middle" x="995" y="-158.8" font-family="Times,serif" font-size="14.00">DoUpdates (Concurrent)</text>
</g>
<!-- 5u2rcpKXFNyRvOMhOfHJL__entry -->
<!-- 5u2rcpKXFNyRvOMhOfHJL__exit -->
<!-- zBnDj9i1nAskjogzEUIGx -->
<g id="node10" class="node">
<title>zBnDj9i1nAskjogzEUIGx</title>
<path fill="#efefef" stroke="black" d="M1228,-142C1228,-142 1132,-142 1132,-142 1126,-142 1120,-136 1120,-130 1120,-130 1120,-118 1120,-118 1120,-112 1126,-106 1132,-106 1132,-106 1228,-106 1228,-106 1234,-106 1240,-112 1240,-118 1240,-118 1240,-130 1240,-130 1240,-136 1234,-142 1228,-142"/>
<text text-anchor="middle" x="1180" y="-121.5" font-family="Helvetica,sans-Serif" font-size="10.00">FinalizeMemoryNode</text>
</g>
<!-- 5u2rcpKXFNyRvOMhOfHJL__exit&#45;&gt;zBnDj9i1nAskjogzEUIGx -->
<g id="edge10" class="edge">
<title>5u2rcpKXFNyRvOMhOfHJL__exit&#45;&gt;zBnDj9i1nAskjogzEUIGx</title>
<path fill="none" stroke="black" d="M1091,-124C1097.19,-124 1103.35,-124 1109.38,-124"/>
<polygon fill="black" stroke="black" points="1109.63,-127.5 1119.63,-124 1109.63,-120.5 1109.63,-127.5"/>
</g>
<!-- nZmIuImggXBXjQdbxACrd -->
<g id="node3" class="node">
<title>nZmIuImggXBXjQdbxACrd</title>
<path fill="lightblue" stroke="black" d="M1035.5,-106C1035.5,-106 954.5,-106 954.5,-106 948.5,-106 942.5,-100 942.5,-94 942.5,-94 942.5,-82 942.5,-82 942.5,-76 948.5,-70 954.5,-70 954.5,-70 1035.5,-70 1035.5,-70 1041.5,-70 1047.5,-76 1047.5,-82 1047.5,-82 1047.5,-94 1047.5,-94 1047.5,-100 1041.5,-106 1035.5,-106"/>
<text text-anchor="middle" x="995" y="-85.5" font-family="Helvetica,sans-Serif" font-size="10.00">UpdateGoalsNode</text>
</g>
<!-- PJJnLdIroNrrRz9T5kgtw -->
<g id="node4" class="node">
<title>PJJnLdIroNrrRz9T5kgtw</title>
<path fill="lightblue" stroke="black" d="M1068,-52C1068,-52 922,-52 922,-52 916,-52 910,-46 910,-40 910,-40 910,-28 910,-28 910,-22 916,-16 922,-16 922,-16 1068,-16 1068,-16 1074,-16 1080,-22 1080,-28 1080,-28 1080,-40 1080,-40 1080,-46 1074,-52 1068,-52"/>
<text text-anchor="middle" x="995" y="-31.5" font-family="Helvetica,sans-Serif" font-size="10.00">UpdateBackgroundStreamNode</text>
</g>
<!-- tEVodr0709tiwDS7KoP3Y -->
<g id="node5" class="node">
<title>tEVodr0709tiwDS7KoP3Y</title>
<path fill="#efefef" stroke="black" d="M858,-215C858,-215 761,-215 761,-215 755,-215 749,-209 749,-203 749,-203 749,-191 749,-191 749,-185 755,-179 761,-179 761,-179 858,-179 858,-179 864,-179 870,-185 870,-191 870,-191 870,-203 870,-203 870,-209 864,-215 858,-215"/>
<text text-anchor="middle" x="809.5" y="-194.5" font-family="Helvetica,sans-Serif" font-size="10.00">OverworldAgentNode</text>
</g>
<!-- tEVodr0709tiwDS7KoP3Y&#45;&gt;5u2rcpKXFNyRvOMhOfHJL__entry -->
<g id="edge9" class="edge">
<title>tEVodr0709tiwDS7KoP3Y&#45;&gt;5u2rcpKXFNyRvOMhOfHJL__entry</title>
<path fill="none" stroke="black" d="M870.08,-179.47C876.32,-177.63 882.79,-175.73 889.34,-173.8"/>
<polygon fill="black" stroke="black" points="890.4,-177.14 899,-170.96 888.42,-170.42 890.4,-177.14"/>
</g>
<!-- QFKD4S0pX4FNXqU7NkLZ6 -->
<g id="node6" class="node">
<title>QFKD4S0pX4FNXqU7NkLZ6</title>
<path fill="#efefef" stroke="black" d="M579,-161C579,-161 522,-161 522,-161 516,-161 510,-155 510,-149 510,-149 510,-137 510,-137 510,-131 516,-125 522,-125 522,-125 579,-125 579,-125 585,-125 591,-131 591,-137 591,-137 591,-149 591,-149 591,-155 585,-161 579,-161"/>
<text text-anchor="middle" x="550.5" y="-140.5" font-family="Helvetica,sans-Serif" font-size="10.00">DummyNode</text>
</g>
<!-- QFKD4S0pX4FNXqU7NkLZ6&#45;&gt;tEVodr0709tiwDS7KoP3Y -->
<g id="edge4" class="edge">
<title>QFKD4S0pX4FNXqU7NkLZ6&#45;&gt;tEVodr0709tiwDS7KoP3Y</title>
<path fill="none" stroke="black" stroke-dasharray="5,2" d="M591.04,-152.85C597.05,-154.28 603.18,-155.71 609,-157 651.9,-166.52 700.2,-176.23 738.54,-183.7"/>
<polygon fill="black" stroke="black" points="738.08,-187.18 748.57,-185.65 739.42,-180.31 738.08,-187.18"/>
<text text-anchor="middle" x="670" y="-183.8" font-family="Helvetica,sans-Serif" font-size="9.00">AgentHandlerIs(overworld)</text>
</g>
<!-- lCoYCnIU5hCbo2MUFvr0x -->
<g id="node7" class="node">
<title>lCoYCnIU5hCbo2MUFvr0x</title>
<path fill="#efefef" stroke="black" d="M848,-161C848,-161 771,-161 771,-161 765,-161 759,-155 759,-149 759,-149 759,-137 759,-137 759,-131 765,-125 771,-125 771,-125 848,-125 848,-125 854,-125 860,-131 860,-137 860,-137 860,-149 860,-149 860,-155 854,-161 848,-161"/>
<text text-anchor="middle" x="809.5" y="-140.5" font-family="Helvetica,sans-Serif" font-size="10.00">TextHandlerNode</text>
</g>
<!-- QFKD4S0pX4FNXqU7NkLZ6&#45;&gt;lCoYCnIU5hCbo2MUFvr0x -->
<g id="edge6" class="edge">
<title>QFKD4S0pX4FNXqU7NkLZ6&#45;&gt;lCoYCnIU5hCbo2MUFvr0x</title>
<path fill="none" stroke="black" stroke-dasharray="5,2" d="M591.09,-143C633.16,-143 700.15,-143 748.66,-143"/>
<polygon fill="black" stroke="black" points="748.72,-146.5 758.72,-143 748.72,-139.5 748.72,-146.5"/>
<text text-anchor="middle" x="670" y="-145.8" font-family="Helvetica,sans-Serif" font-size="9.00">AgentHandlerIs(text)</text>
</g>
<!-- 1mttNI9ynotr9motenWlf -->
<g id="node8" class="node">
<title>1mttNI9ynotr9motenWlf</title>
<path fill="#efefef" stroke="black" d="M847.5,-107C847.5,-107 771.5,-107 771.5,-107 765.5,-107 759.5,-101 759.5,-95 759.5,-95 759.5,-83 759.5,-83 759.5,-77 765.5,-71 771.5,-71 771.5,-71 847.5,-71 847.5,-71 853.5,-71 859.5,-77 859.5,-83 859.5,-83 859.5,-95 859.5,-95 859.5,-101 853.5,-107 847.5,-107"/>
<text text-anchor="middle" x="809.5" y="-86.5" font-family="Helvetica,sans-Serif" font-size="10.00">BattleAgentNode</text>
</g>
<!-- QFKD4S0pX4FNXqU7NkLZ6&#45;&gt;1mttNI9ynotr9motenWlf -->
<g id="edge5" class="edge">
<title>QFKD4S0pX4FNXqU7NkLZ6&#45;&gt;1mttNI9ynotr9motenWlf</title>
<path fill="none" stroke="black" stroke-dasharray="5,2" d="M591.04,-133.15C597.05,-131.72 603.18,-130.29 609,-129 655.95,-118.58 709.39,-107.93 749.14,-100.24"/>
<polygon fill="black" stroke="black" points="750.03,-103.63 759.19,-98.3 748.71,-96.76 750.03,-103.63"/>
<text text-anchor="middle" x="670" y="-131.8" font-family="Helvetica,sans-Serif" font-size="9.00">AgentHandlerIs(battle)</text>
</g>
<!-- lCoYCnIU5hCbo2MUFvr0x&#45;&gt;5u2rcpKXFNyRvOMhOfHJL__entry -->
<g id="edge7" class="edge">
<title>lCoYCnIU5hCbo2MUFvr0x&#45;&gt;5u2rcpKXFNyRvOMhOfHJL__entry</title>
<path fill="none" stroke="black" d="M860.16,-143C869.22,-143 878.99,-143 888.97,-143"/>
<polygon fill="black" stroke="black" points="889,-146.5 899,-143 889,-139.5 889,-146.5"/>
</g>
<!-- 1mttNI9ynotr9motenWlf&#45;&gt;5u2rcpKXFNyRvOMhOfHJL__entry -->
<g id="edge8" class="edge">
<title>1mttNI9ynotr9motenWlf&#45;&gt;5u2rcpKXFNyRvOMhOfHJL__entry</title>
<path fill="none" stroke="black" d="M851.74,-107.04C857.91,-109.93 864.16,-112.97 870,-116 879.53,-120.94 883.01,-125.15 889.48,-128.86"/>
<polygon fill="black" stroke="black" points="888.43,-132.22 899,-133 891.23,-125.8 888.43,-132.22"/>
</g>
<!-- OWjj6wdJfIuwk9AleczCq -->
<g id="node9" class="node">
<title>OWjj6wdJfIuwk9AleczCq</title>
<path fill="#efefef" stroke="black" d="M461,-134C461,-134 314,-134 314,-134 308,-134 302,-128 302,-122 302,-122 302,-110 302,-110 302,-104 308,-98 314,-98 314,-98 461,-98 461,-98 467,-98 473,-104 473,-110 473,-110 473,-122 473,-122 473,-128 467,-134 461,-134"/>
<text text-anchor="middle" x="387.5" y="-113.5" font-family="Helvetica,sans-Serif" font-size="10.00">RetrieveLongTermMemoryNode</text>
</g>
<!-- OWjj6wdJfIuwk9AleczCq&#45;&gt;QFKD4S0pX4FNXqU7NkLZ6 -->
<g id="edge3" class="edge">
<title>OWjj6wdJfIuwk9AleczCq&#45;&gt;QFKD4S0pX4FNXqU7NkLZ6</title>
<path fill="none" stroke="black" d="M473.24,-130.21C482.29,-131.73 491.27,-133.23 499.71,-134.65"/>
<polygon fill="black" stroke="black" points="499.28,-138.13 509.72,-136.33 500.44,-131.22 499.28,-138.13"/>
</g>
<!-- hunKjUyUESDwRqmITcvv6 -->
<g id="node11" class="node">
<title>hunKjUyUESDwRqmITcvv6</title>
<path fill="#efefef" stroke="black" d="M122,-161C122,-161 12,-161 12,-161 6,-161 0,-155 0,-149 0,-149 0,-137 0,-137 0,-131 6,-125 12,-125 12,-125 122,-125 122,-125 128,-125 134,-131 134,-137 134,-137 134,-149 134,-149 134,-155 128,-161 122,-161"/>
<text text-anchor="middle" x="67" y="-140.5" font-family="Helvetica,sans-Serif" font-size="10.00">PrepareAgentStoreNode</text>
</g>
<!-- hunKjUyUESDwRqmITcvv6&#45;&gt;QFKD4S0pX4FNXqU7NkLZ6 -->
<g id="edge2" class="edge">
<title>hunKjUyUESDwRqmITcvv6&#45;&gt;QFKD4S0pX4FNXqU7NkLZ6</title>
<path fill="none" stroke="black" stroke-dasharray="5,2" d="M134.01,-148.16C140.09,-148.5 146.16,-148.79 152,-149 303.02,-154.39 341,-152.97 492,-147 494.54,-146.9 497.14,-146.78 499.76,-146.65"/>
<polygon fill="black" stroke="black" points="500.14,-150.13 509.92,-146.07 499.74,-143.14 500.14,-150.13"/>
<text text-anchor="middle" x="387.5" y="-154.8" font-family="Helvetica,sans-Serif" font-size="9.00">ShouldRetrieveMemory(False)</text>
</g>
<!-- hunKjUyUESDwRqmITcvv6&#45;&gt;OWjj6wdJfIuwk9AleczCq -->
<g id="edge1" class="edge">
<title>hunKjUyUESDwRqmITcvv6&#45;&gt;OWjj6wdJfIuwk9AleczCq</title>
<path fill="none" stroke="black" stroke-dasharray="5,2" d="M134.38,-137.37C180.02,-133.5 241.29,-128.31 292,-124.01"/>
<polygon fill="black" stroke="black" points="292.33,-127.5 302,-123.16 291.74,-120.52 292.33,-127.5"/>
<text text-anchor="middle" x="218" y="-137.8" font-family="Helvetica,sans-Serif" font-size="9.00">ShouldRetrieveMemory(True)</text>
</g>
</g>
</svg>
